<svg width="250" height="166" viewBox="0 0 250 166" version="1.1" xmlns="http://www.w3.org/2000/svg" xmlns:xlink="http://www.w3.org/1999/xlink"><title>OpenDataSoft remote objetcs</title><desc>Created with Sketch.</desc><g id="OpenDataSoft-remote-objetcs" stroke="none" stroke-width="1" fill="none" fill-rule="evenodd"><g id="undraw_data_processing_yrrv" transform="translate(9.000000, 0.000000)" fill-rule="nonzero"><circle id="Oval" fill="#E6E6E6" cx="10.741" cy="30.083" r="3.703"/><circle id="Oval" fill="#E6E6E6" cx="21.851" cy="30.083" r="3.703"/><circle id="Oval" fill="#E6E6E6" cx="32.961" cy="30.083" r="3.703"/><circle id="Oval" fill="#E6E6E6" cx="44.07" cy="30.083" r="3.703"/><circle id="Oval" fill="#E6E6E6" cx="55.18" cy="30.083" r="3.703"/><circle id="Oval" fill="#E6E6E6" cx="66.29" cy="30.083" r="3.703"/><circle id="Oval" fill="#E6E6E6" cx="77.399" cy="30.083" r="3.703"/><path d="M85.9569355,34.5925254 L2.18388622,34.5925254 C1.35198628,34.5915478 0.677841931,33.9174034 0.676864321,33.0855035 L0.676864321,27.0802266 C0.677840437,26.2483261 1.35198566,25.5741808 2.18388622,25.5732047 L85.9569355,25.5732047 C86.7888354,25.5741823 87.4629797,26.2483267 87.4639573,27.0802266 L87.4639573,33.0855035 C87.4629782,33.9174028 86.7888348,34.5915463 85.9569355,34.5925254 L85.9569355,34.5925254 Z M2.18388622,26.1760129 C1.68472873,26.1765634 1.27967254,26.5810746 1.27967254,27.080232 L1.27967254,33.0855035 C1.27967254,33.5846599 1.68472979,33.9891694 2.18388622,33.9897144 L85.9569355,33.9897144 C86.4560914,33.9891694 86.8611464,33.5846595 86.8611464,33.0855035 L86.8611464,27.0802266 C86.8611464,26.5810696 86.4560925,26.176558 85.9569355,26.1760129 L2.18388622,26.1760129 Z" id="Shape" fill="#E6E6E6"/><path d="M20.1118455,0.865876105 C20.5898216,0.866422582 20.9771615,1.2537625 20.977708,1.73173863 L20.977708,20.4950691 C20.9771615,20.9730452 20.5898216,21.3603851 20.1118455,21.3609316 L1.73176036,21.3609316 C1.25378424,21.3603851 0.866444317,20.9730452 0.86589784,20.4950691 L0.86589784,1.73175221 C0.866444317,1.25377609 1.25378424,0.866436166 1.73176036,0.865876105 L20.1118455,0.865876105 M20.1118455,7.72177376e-15 L1.73176036,7.72177376e-15 C0.775340024,7.72177376e-15 8.15057285e-06,0.775345458 8.15057285e-06,1.73176579 L8.15057285e-06,20.4950691 C8.15057285e-06,21.4514894 0.775340024,22.2268213 1.73176036,22.2268213 L20.1118455,22.2268213 C21.0682652,22.2268213 21.8435977,21.4514888 21.8435977,20.4950691 L21.8435977,1.73175221 C21.8435977,0.775332495 21.0682652,7.72177376e-15 20.1118455,7.72177376e-15 L20.1118455,7.72177376e-15 Z" id="Shape" fill="#E6E6E6"/><path d="M17.2449494,5.79794534 L4.98189365,5.79794534 C4.82658931,5.79889014 4.68267268,5.71658296 4.6047441,5.58224203 C4.52681553,5.44790111 4.52681553,5.28211067 4.6047441,5.14776975 C4.68267268,5.01342883 4.82658931,4.93112165 4.98189365,4.93206645 L17.2449494,4.93206645 C17.4002537,4.93112165 17.5441704,5.01342883 17.6220989,5.14776975 C17.7000275,5.28211067 17.7000275,5.44790111 17.6220989,5.58224203 C17.5441704,5.71658296 17.4002537,5.79889014 17.2449494,5.79794534 L17.2449494,5.79794534 Z" id="Path" fill="#387ED1"/><path d="M17.2449494,8.86381591 L4.98189365,8.86381591 C4.82658931,8.86476071 4.68267268,8.78245353 4.6047441,8.64811261 C4.52681553,8.51377168 4.52681553,8.34798125 4.6047441,8.21364032 C4.68267268,8.0792994 4.82658931,7.99699222 4.98189365,7.99793702 L17.2449494,7.99793702 C17.4002537,7.99699222 17.5441704,8.0792994 17.6220989,8.21364032 C17.7000275,8.34798125 17.7000275,8.51377168 17.6220989,8.64811261 C17.5441704,8.78245353 17.4002537,8.86476071 17.2449494,8.86381591 Z" id="Path" fill="#387ED1"/><path d="M17.2449494,11.9294746 L4.98189365,11.9294746 C4.82658931,11.9304194 4.68267268,11.8481122 4.6047441,11.7137713 C4.52681553,11.5794303 4.52681553,11.4136399 4.6047441,11.279299 C4.68267268,11.1449581 4.82658931,11.0626509 4.98189365,11.0635957 L17.2449494,11.0635957 C17.4002537,11.0626509 17.5441704,11.1449581 17.6220989,11.279299 C17.7000275,11.4136399 17.7000275,11.5794303 17.6220989,11.7137713 C17.5441704,11.8481122 17.4002537,11.9304194 17.2449494,11.9294746 Z" id="Path" fill="#387ED1"/><path d="M17.2449494,14.9953424 L4.98189365,14.9953424 C4.82658931,14.9962872 4.68267268,14.91398 4.6047441,14.7796391 C4.52681553,14.6452982 4.52681553,14.4795078 4.6047441,14.3451668 C4.68267268,14.2108259 4.82658931,14.1285187 4.98189365,14.1294635 L17.2449494,14.1294635 C17.4002537,14.1285187 17.5441704,14.2108259 17.6220989,14.3451668 C17.7000275,14.4795078 17.7000275,14.6452982 17.6220989,14.7796391 C17.5441704,14.91398 17.4002537,14.9962872 17.2449494,14.9953424 Z" id="Path" fill="#387ED1"/><path d="M17.2449494,18.0612075 L4.98189365,18.0612075 C4.74278782,18.0612075 4.54895424,17.867374 4.54895424,17.6282681 C4.54895424,17.3891623 4.74278782,17.1953287 4.98189365,17.1953287 L17.2449494,17.1953287 C17.4840552,17.1953287 17.6778888,17.3891623 17.6778888,17.6282681 C17.6778888,17.867374 17.4840552,18.0612075 17.2449494,18.0612075 L17.2449494,18.0612075 Z" id="Path" fill="#387ED1"/><path d="M82.887878,0.865876105 C83.3658541,0.866422582 83.753194,1.2537625 83.7537405,1.73173863 L83.7537405,20.4950691 C83.753194,20.9730452 83.3658541,21.3603851 82.887878,21.3609316 L64.5077929,21.3609316 C64.0298168,21.3603851 63.6424769,20.9730452 63.6419304,20.4950691 L63.6419304,1.73175221 C63.6424769,1.25377609 64.0298168,0.866436166 64.5077929,0.865876105 L82.887878,0.865876105 M82.887878,7.72177376e-15 L64.5077929,7.72177376e-15 C63.5513726,7.72177376e-15 62.7760407,0.775345458 62.7760407,1.73176579 L62.7760407,20.4950691 C62.7760407,21.4514894 63.5513726,22.2268213 64.5077929,22.2268213 L82.887878,22.2268213 C83.8442983,22.2268213 84.6196302,21.4514894 84.6196302,20.4950691 L84.6196302,1.73175221 C84.6196302,0.775331874 83.8442983,7.72177376e-15 82.887878,7.72177376e-15 L82.887878,7.72177376e-15 Z" id="Shape" fill="#E6E6E6"/><path d="M80.0209846,5.79794534 L67.7579371,5.79794534 C67.6026327,5.79889014 67.4587161,5.71658296 67.3807875,5.58224203 C67.3028589,5.44790111 67.3028589,5.28211067 67.3807875,5.14776975 C67.4587161,5.01342883 67.6026327,4.93112165 67.7579371,4.93206645 L80.0209955,4.93206645 C80.2590601,4.93353545 80.4512784,5.12693686 80.4512784,5.36500589 C80.4512784,5.60307492 80.2590601,5.79647633 80.0209955,5.79794534 L80.0209846,5.79794534 Z" id="Path" fill="#387ED1"/><path d="M80.0209846,8.86381591 L67.7579371,8.86381591 C67.6026327,8.86476071 67.4587161,8.78245353 67.3807875,8.64811261 C67.3028589,8.51377168 67.3028589,8.34798125 67.3807875,8.21364032 C67.4587161,8.0792994 67.6026327,7.99699222 67.7579371,7.99793702 L80.0209955,7.99793702 C80.2590601,7.99940602 80.4512784,8.19280743 80.4512784,8.43087646 C80.4512784,8.6689455 80.2590601,8.86234691 80.0209955,8.86381591 L80.0209846,8.86381591 Z" id="Path" fill="#387ED1"/><path d="M80.0209846,11.9294746 L67.7579371,11.9294746 C67.6026327,11.9304194 67.4587161,11.8481122 67.3807875,11.7137713 C67.3028589,11.5794303 67.3028589,11.4136399 67.3807875,11.279299 C67.4587161,11.1449581 67.6026327,11.0626509 67.7579371,11.0635957 L80.0209955,11.0635957 C80.2590601,11.0650647 80.4512784,11.2584661 80.4512784,11.4965351 C80.4512784,11.7346042 80.2590601,11.9280056 80.0209955,11.9294746 L80.0209846,11.9294746 Z" id="Path" fill="#387ED1"/><path d="M80.0209846,14.9953424 L67.7579371,14.9953424 C67.6026327,14.9962872 67.4587161,14.91398 67.3807875,14.7796391 C67.3028589,14.6452982 67.3028589,14.4795078 67.3807875,14.3451668 C67.4587161,14.2108259 67.6026327,14.1285187 67.7579371,14.1294635 L80.0209955,14.1294635 C80.2590601,14.1309325 80.4512784,14.3243339 80.4512784,14.562403 C80.4512784,14.800472 80.2590601,14.9938734 80.0209955,14.9953424 L80.0209846,14.9953424 Z" id="Path" fill="#387ED1"/><path d="M80.0209846,18.0612075 L67.7579371,18.0612075 C67.5188312,18.0612075 67.3249976,17.867374 67.3249976,17.6282681 C67.3249976,17.3891623 67.5188312,17.1953287 67.7579371,17.1953287 L80.0209955,17.1953287 C80.2601013,17.1953287 80.4539349,17.3891623 80.4539349,17.6282681 C80.4539349,17.867374 80.2601013,18.0612075 80.0209955,18.0612075 L80.0209846,18.0612075 Z" id="Path" fill="#387ED1"/><path d="M145.358998,36.943406 C145.836974,36.9439524 146.224314,37.3312924 146.22486,37.8092685 L146.22486,56.5725799 C146.224312,57.0505554 145.836973,57.4378945 145.358998,57.4384425 L126.978913,57.4384425 C126.500937,57.4378945 126.113598,57.0505554 126.11305,56.5725799 L126.11305,37.8092821 C126.113596,37.3313059 126.500936,36.943966 126.978913,36.943406 L145.358998,36.943406 M145.358998,36.0775299 L126.978913,36.0775299 C126.022492,36.0775299 125.24716,36.8528889 125.24716,37.8093092 L125.24716,56.5726207 C125.24716,57.529041 126.022492,58.3043729 126.978913,58.3043729 L145.358998,58.3043729 C146.315417,58.3043729 147.09075,57.5290404 147.09075,56.5726207 L147.09075,37.8092821 C147.09075,36.8528617 146.315418,36.0775299 145.358998,36.0775299 L145.358998,36.0775299 Z" id="Shape" fill="#387ED1"/><path d="M142.492104,41.8754752 L130.229046,41.8754752 C130.073741,41.87642 129.929825,41.7941128 129.851896,41.6597719 C129.773968,41.525431 129.773968,41.3596405 129.851896,41.2252996 C129.929825,41.0909587 130.073741,41.0086515 130.229046,41.0095963 L142.492104,41.0095963 C142.730169,41.0110653 142.922387,41.2044667 142.922387,41.4425357 C142.922387,41.6806048 142.730169,41.8740062 142.492104,41.8754752 Z" id="Path" fill="#387ED1"/><path d="M142.492104,44.9413376 L130.229046,44.9413376 C129.98994,44.9413376 129.796106,44.747504 129.796106,44.5083982 C129.796106,44.2692923 129.98994,44.0754588 130.229046,44.0754588 L142.492104,44.0754588 C142.73121,44.0754588 142.925044,44.2692923 142.925044,44.5083982 C142.925044,44.747504 142.73121,44.9413376 142.492104,44.9413376 Z" id="Path" fill="#387ED1"/><path d="M142.492104,48.0070017 L130.229046,48.0070017 C130.073858,48.0077738 129.930124,47.925428 129.852305,47.7911592 C129.774485,47.6568904 129.774485,47.4912396 129.852305,47.3569708 C129.930124,47.222702 130.073858,47.1403562 130.229046,47.1411283 L142.492104,47.1411283 C142.730169,47.1425945 142.922387,47.3359959 142.922387,47.574065 C142.922387,47.812134 142.730169,48.0055354 142.492104,48.0070017 L142.492104,48.0070017 Z" id="Path" fill="#387ED1"/><path d="M142.492104,51.0728723 L130.229046,51.0728723 C130.073741,51.0738171 129.929825,50.9915099 129.851896,50.857169 C129.773968,50.722828 129.773968,50.5570376 129.851896,50.4226967 C129.929825,50.2883558 130.073741,50.2060486 130.229046,50.2069934 L142.492104,50.2069934 C142.730169,50.2084624 142.922387,50.4018638 142.922387,50.6399328 C142.922387,50.8780019 142.730169,51.0714033 142.492104,51.0728723 Z" id="Path" fill="#387ED1"/><path d="M142.492104,54.1387401 L130.229046,54.1387401 C130.073741,54.1396849 129.929825,54.0573778 129.851896,53.9230368 C129.773968,53.7886959 129.773968,53.6229055 129.851896,53.4885645 C129.929825,53.3542236 130.073741,53.2719164 130.229046,53.2728612 L142.492104,53.2728612 C142.730169,53.2743302 142.922387,53.4677317 142.922387,53.7058007 C142.922387,53.9438697 142.730169,54.1372711 142.492104,54.1387401 Z" id="Path" fill="#387ED1"/><path d="M51.7403824,22.2268159 L32.8790359,22.2268159 C31.8170062,22.2255688 30.9563716,21.3649354 30.955123,20.3029058 L30.955123,6.80656511 C30.9562788,5.7444626 31.8169335,4.8837143 32.8790359,4.88244308 L51.7403824,4.88244308 C52.8025601,4.88361547 53.6633333,5.74438741 53.6645072,6.80656511 L53.6645072,20.3029058 C53.6632344,21.3650081 52.8024849,22.2256616 51.7403824,22.2268159 L51.7403824,22.2268159 Z M32.8790359,5.74831918 C32.2949165,5.74904243 31.8216069,6.22244561 31.8209991,6.80656511 L31.8209991,20.3029058 C31.8216251,20.8869834 32.2949582,21.3603154 32.8790359,21.3609398 L51.7403824,21.3609398 C52.3245009,21.360332 52.7979036,20.8870241 52.7986283,20.3029058 L52.7986283,6.80656511 C52.7979218,6.22240495 52.3245426,5.74902577 51.7403824,5.74831918 L32.8790359,5.74831918 Z" id="Shape" fill="#E6E6E6"/><path d="M48.4413511,10.9218111 L36.1782845,10.9218111 C35.94022,10.9203421 35.7480017,10.7269407 35.7480017,10.4888717 C35.7480017,10.2508026 35.94022,10.0574012 36.1782845,10.0559322 L48.4413511,10.0559322 C48.5966555,10.0549874 48.7405721,10.1372946 48.8185007,10.2716355 C48.8964292,10.4059764 48.8964292,10.5717669 48.8185007,10.7061078 C48.7405721,10.8404487 48.5966555,10.9227559 48.4413511,10.9218111 L48.4413511,10.9218111 Z" id="Path" fill="#387ED1"/><path d="M48.4413511,13.9876817 L36.1782845,13.9876817 C35.94022,13.9862127 35.7480017,13.7928113 35.7480017,13.5547422 C35.7480017,13.3166732 35.94022,13.1232718 36.1782845,13.1218028 L48.4413511,13.1218028 C48.5966555,13.120858 48.7405721,13.2031652 48.8185007,13.3375061 C48.8964292,13.471847 48.8964292,13.6376374 48.8185007,13.7719784 C48.7405721,13.9063193 48.5966555,13.9886265 48.4413511,13.9876817 L48.4413511,13.9876817 Z" id="Path" fill="#387ED1"/><path d="M48.4413511,17.0533403 L36.1782845,17.0533403 C35.94022,17.0518713 35.7480017,16.8584699 35.7480017,16.6204009 C35.7480017,16.3823319 35.94022,16.1889304 36.1782845,16.1874614 L48.4413511,16.1874614 C48.5966555,16.1865166 48.7405721,16.2688238 48.8185007,16.4031647 C48.8964292,16.5375057 48.8964292,16.7032961 48.8185007,16.837637 C48.7405721,16.9719779 48.5966555,17.0542851 48.4413511,17.0533403 Z" id="Path" fill="#387ED1"/><path d="M114.32545,29.705556 L96.210462,24.4521994 C95.190805,24.1551998 94.6039354,23.0889131 94.8985404,22.0685616 L98.6576063,9.10628727 C98.954537,8.08653526 100.020873,7.49956014 101.041301,7.79415915 L119.156289,13.0475158 C120.176107,13.3444863 120.76307,14.4109424 120.468354,15.4314143 L116.709289,28.3936914 C116.412245,29.4134101 115.345845,30.0002672 114.32545,29.705556 L114.32545,29.705556 Z M100.800134,8.62577296 C100.238928,8.46377641 99.652494,8.78661876 99.4892201,9.34745457 L95.7301596,22.3097317 C95.5680803,22.8708713 95.8908487,23.4573085 96.4516402,23.6205883 L114.566625,28.8739422 C115.1278,29.0360492 115.714298,28.7133243 115.877686,28.1525214 L119.636752,15.190247 C119.798774,14.6290056 119.475976,14.0425113 118.91513,13.8791269 L100.800134,8.62577296 Z" id="Shape" fill="#E6E6E6"/><path d="M114.305682,17.929027 L102.527887,14.5134615 C102.298696,14.4465046 102.166982,14.2066324 102.233485,13.9773092 C102.299989,13.747986 102.5396,13.6157978 102.769054,13.6818477 L114.546844,17.0974159 C114.776487,17.1640131 114.908662,17.4041634 114.842064,17.6338064 C114.775467,17.8634495 114.535317,17.9956242 114.305674,17.929027 L114.305682,17.929027 Z" id="Path" fill="#387ED1"/><path d="M113.451763,20.873579 L101.673965,17.4580108 C101.525412,17.4149304 101.411126,17.2958704 101.374159,17.1456795 C101.337191,16.9954886 101.383157,16.8369845 101.494742,16.729874 C101.606327,16.6227635 101.766579,16.5833193 101.915132,16.6263997 L113.692935,20.0419652 C113.922127,20.1089221 114.053841,20.3487943 113.987337,20.5781175 C113.920834,20.8074406 113.681222,20.9396288 113.451768,20.873579 L113.451763,20.873579 Z" id="Path" fill="#387ED1"/><path d="M112.597901,23.8179245 L100.820103,20.4023591 C100.590912,20.3354021 100.459197,20.0955299 100.525701,19.8662067 C100.592205,19.6368836 100.831816,19.5046954 101.06127,19.5707452 L112.839068,22.9863134 C112.987621,23.0293938 113.101906,23.1484538 113.138874,23.2986447 C113.175842,23.4488356 113.129876,23.6073398 113.018291,23.7144502 C112.906705,23.8215607 112.746454,23.8610049 112.597901,23.8179245 Z" id="Path" fill="#387ED1"/><rect id="Rectangle" fill="#E6E6E6" x="42.412" y="165.124" width="189.993" height="1"/><polygon id="Path" fill="#E6E6E6" points="152.725434 163.849607 121.829601 163.849607 122.876949 150.23489 151.678085 150.23489"/><rect id="Rectangle" fill="#E6E6E6" x="120.259" y="162.279" width="34.561" height="3.142"/><path d="M196.450518,62.5224682 L78.3662173,62.5224682 C76.6309763,62.5224682 75.2242856,63.929159 75.2242856,65.6643999 L75.2242856,65.6643999 L75.2242856,137.667025 L199.592456,137.667025 L199.592456,65.6643999 C199.592456,64.8311086 199.261433,64.0319463 198.672208,63.4427198 C198.082982,62.8534933 197.283821,62.5224682 196.450529,62.5224682 L196.450518,62.5224682 Z" id="Path" fill="#3F3D56"/><path d="M75.2242856,137.667025 L75.2242856,149.449273 C75.2242856,150.282565 75.5553097,151.081727 76.1445363,151.670953 C76.7337628,152.260179 77.5329255,152.591202 78.3662173,152.591202 L196.450518,152.591202 C198.18576,152.591202 199.592456,151.184514 199.592456,149.449273 L199.592456,149.449273 L199.592456,137.667025 L75.2242856,137.667025 Z" id="Path" fill="#E6E6E6"/><rect id="Rectangle" fill="#E6E6E6" x="81.508" y="69.068" width="112.062" height="62.839"/><circle id="Oval" fill="#3F3D56" cx="137.539" cy="144.998" r="3.142"/><circle id="Oval" fill="#FFF" cx="85.002" cy="71.126" r="1"/><circle id="Oval" fill="#FFF" cx="87.266" cy="71.126" r="1"/><circle id="Oval" fill="#FFF" cx="89.529" cy="71.126" r="1"/><rect id="Rectangle" fill="#FFF" x="84.406" y="73.152" width="105.935" height="52.774"/><path d="M91.4478487,81.1793739 C91.241101,81.1793739 91.0733516,81.3471233 91.0733516,81.553871 L91.0733516,100.483788 C91.0733516,100.690535 91.241102,100.858283 91.4478487,100.858283 L113.308853,100.858283 C113.5156,100.858283 113.68335,100.690535 113.68335,100.483788 L113.68335,81.553871 C113.68335,81.3471233 113.515601,81.1793739 113.308853,81.1793739 L91.4478487,81.1793739 Z" id="Path" fill="#E6E6E6"/><path d="M126.548494,81.2402642 C126.341701,81.2402642 126.173864,81.4079684 126.173864,81.6147612 L126.173864,100.483788 C126.173864,100.69058 126.341703,100.858283 126.548494,100.858283 L148.339866,100.858283 C148.546567,100.858028 148.71423,100.690489 148.71423,100.483788 L148.71423,81.6147612 C148.71423,81.4080593 148.546568,81.2405188 148.339866,81.2402642 L126.548494,81.2402642 Z" id="Path" fill="#E6E6E6"/><path d="M161.281025,81.0424688 C161.074323,81.0427234 160.906661,81.2102639 160.906661,81.4169659 L160.906661,100.483788 C160.906661,100.69049 161.074323,100.85803 161.281025,100.858283 L183.298982,100.858283 C183.505684,100.85803 183.673346,100.69049 183.673346,100.483788 L183.673346,81.4169659 C183.673346,81.2102639 183.505684,81.0427234 183.298982,81.0424688 L161.281025,81.0424688 Z" id="Path" fill="#E6E6E6"/><path d="M91.8475365,110.228529 C91.420488,110.229329 91.0747205,110.575745 91.0747205,111.002794 C91.0747205,111.429843 91.420488,111.776259 91.8475365,111.777059 L112.4012,111.777059 C112.828249,111.776259 113.174016,111.429843 113.174016,111.002794 C113.174016,110.575745 112.828249,110.229329 112.4012,110.228529 L91.8475365,110.228529 Z" id="Path" fill="#E6E6E6"/><path d="M91.8475365,113.911406 C91.420452,113.912206 91.0746553,114.258651 91.0746553,114.685736 C91.0746553,115.112822 91.420452,115.459267 91.8475365,115.460067 L101.101697,115.460067 C101.528781,115.459267 101.874578,115.112822 101.874578,114.685736 C101.874578,114.258651 101.528781,113.912206 101.101697,113.911406 L91.8475365,113.911406 Z" id="Path" fill="#387ED1"/><path d="M127.325344,110.228529 C126.898296,110.229329 126.552528,110.575745 126.552528,111.002794 C126.552528,111.429843 126.898296,111.776259 127.325344,111.777059 L147.879011,111.777059 C148.306059,111.776259 148.651827,111.429843 148.651827,111.002794 C148.651827,110.575745 148.306059,110.229329 147.879011,110.228529 L127.325344,110.228529 Z" id="Path" fill="#E6E6E6"/><path d="M127.325344,113.911406 C126.89826,113.912206 126.552463,114.258651 126.552463,114.685736 C126.552463,115.112822 126.89826,115.459267 127.325344,115.460067 L136.579641,115.460067 C137.006725,115.459267 137.352522,115.112822 137.352522,114.685736 C137.352522,114.258651 137.006725,113.912206 136.579641,113.911406 L127.325344,113.911406 Z" id="Path" fill="#387ED1"/><path d="M161.916462,110.228529 C161.489414,110.229329 161.143646,110.575745 161.143646,111.002794 C161.143646,111.429843 161.489414,111.776259 161.916462,111.777059 L182.470126,111.777059 C182.897175,111.776259 183.242942,111.429843 183.242942,111.002794 C183.242942,110.575745 182.897175,110.229329 182.470126,110.228529 L161.916462,110.228529 Z" id="Path" fill="#E6E6E6"/><path d="M91.8475365,106.424928 C91.420488,106.425728 91.0747205,106.772144 91.0747205,107.199193 C91.0747205,107.626243 91.420488,107.972658 91.8475365,107.973458 L112.4012,107.973458 C112.828249,107.972658 113.174016,107.626243 113.174016,107.199193 C113.174016,106.772144 112.828249,106.425728 112.4012,106.424928 L91.8475365,106.424928 Z" id="Path" fill="#E6E6E6"/><path d="M127.325344,106.424928 C126.898296,106.425728 126.552528,106.772144 126.552528,107.199193 C126.552528,107.626243 126.898296,107.972658 127.325344,107.973458 L147.879011,107.973458 C148.306059,107.972658 148.651827,107.626243 148.651827,107.199193 C148.651827,106.772144 148.306059,106.425728 147.879011,106.424928 L127.325344,106.424928 Z" id="Path" fill="#E6E6E6"/><path d="M161.916462,106.424928 C161.489414,106.425728 161.143646,106.772144 161.143646,107.199193 C161.143646,107.626243 161.489414,107.972658 161.916462,107.973458 L182.470126,107.973458 C182.897175,107.972658 183.242942,107.626243 183.242942,107.199193 C183.242942,106.772144 182.897175,106.425728 182.470126,106.424928 L161.916462,106.424928 Z" id="Path" fill="#E6E6E6"/><path d="M161.916462,113.911406 C161.489378,113.912206 161.143581,114.258651 161.143581,114.685736 C161.143581,115.112822 161.489378,115.459267 161.916462,115.460067 L171.170503,115.460067 C171.597588,115.459267 171.943384,115.112822 171.943384,114.685736 C171.943384,114.258651 171.597588,113.912206 171.170503,113.911406 L161.916462,113.911406 Z" id="Path" fill="#387ED1"/></g><g id="ods-logo" transform="translate(182.000000, 5.000000)" fill="#00C7B1" fill-rule="nonzero"><path d="M15.7905846,27.0900345 C16.0162373,26.5145098 16.1233718,25.8993076 16.1055605,25.2813374 C16.1069455,24.6825035 16.0002415,24.0883407 15.7905846,23.5274495 C15.5854529,22.986501 15.2733847,22.4925055 14.8730461,22.0750112 C14.4835173,21.6654145 14.0184916,21.3350621 13.5035857,21.1021515 C12.9642349,20.8646803 12.3810159,20.7433031 11.7917602,20.7458525 C11.197837,20.7668268 10.6148096,20.9114983 10.0799346,21.1706626 C9.55648657,21.3820188 9.08811978,21.7100586 8.71047418,22.12982 C8.34085613,22.5293883 8.04834293,22.9939543 7.84771412,23.500045 C7.64755798,24.0718657 7.55470249,24.6757633 7.57382202,25.2813374 C7.56901647,25.8861764 7.68060287,26.486288 7.90249254,27.0489276 C8.11437637,27.5555468 8.41592856,28.0197323 8.79264182,28.4191526 C9.18217067,28.828749 9.64719637,29.1591016 10.1621022,29.3920122 C10.7005527,29.6322857 11.284381,29.7537896 11.8739278,29.7482707 C13.635842,29.772643 15.2170867,28.6701152 15.8042792,27.0078209 L15.7905846,27.0900345 Z M28.0335608,26.6789669 C28.3984703,25.6648918 28.3984703,24.555227 28.0335608,23.5411517 C27.8563404,23.1016196 27.60117,22.6977613 27.2803577,22.3490561 C26.9782147,22.0159621 26.6096728,21.7499037 26.1984838,21.568028 C25.7869051,21.3940282 25.3443009,21.3054582 24.8974965,21.3076851 C24.4504312,21.3027091 24.0072721,21.3913905 23.596509,21.568028 C23.184688,21.729799 22.8148173,21.9827631 22.5146354,22.3079494 C22.1903443,22.656602 21.938923,23.0665544 21.7751267,23.5137473 C21.586548,24.0268621 21.4937121,24.5702552 21.5012347,25.1169105 C21.496132,25.6544474 21.5889444,26.1884178 21.7751267,26.6926691 C21.938923,27.1398619 22.1903443,27.5498143 22.5146354,27.898467 C22.8180964,28.223215 23.1867944,28.480047 23.596509,28.6520908 C24.0062561,28.833434 24.4494553,28.9267913 24.8974965,28.9261391 C25.3452078,28.9236527 25.7877741,28.8304289 26.1984838,28.6520908 C26.6090374,28.4753039 26.977691,28.2138341 27.2803577,27.8847647 C27.6013656,27.5310525 27.8564611,27.1226721 28.0335608,26.6789669 L28.0335608,26.6789669 Z M37.0172213,22.3079494 L37.0172213,22.3079494 C37.0172213,22.7875281 37.7019516,23.0067641 38.9892442,23.390427 C41.3858,24.0618373 43.2756554,24.8839723 43.2756554,27.2407591 L43.2756554,27.2407591 C43.2756554,29.9812089 41.2899378,31.3514339 38.3319034,31.3514339 C36.2819806,31.3745565 34.2776272,30.7460472 32.6075588,29.5564391 L34.1961329,26.9804164 C35.4103563,27.8130355 36.8338426,28.2877959 38.3045141,28.3506412 C39.0440228,28.3506412 39.3726933,28.117703 39.3726933,27.6929334 L39.3726933,27.6929334 C39.3726933,27.2270569 38.7016576,27.0215231 37.4280594,26.6652646 C35.0315036,26.0349613 33.1279536,25.2265285 33.1279536,22.7875281 L33.1279536,22.7875281 C33.1279536,20.2115052 35.1958389,18.7727691 37.9895382,18.7727691 C39.7458601,18.7591836 41.4714973,19.2335243 42.9743741,20.1429941 L41.5227462,22.8834439 C40.4325037,22.2433143 39.2093498,21.8635029 37.9484545,21.7735616 C37.2911134,21.7735616 36.9624429,22.0202023 36.9624429,22.3490561 L37.0172213,22.3079494 Z M30.9915954,31.1047935 L28.2526746,31.1047935 L28.2526746,29.1453717 C27.8175256,29.7787947 27.2697807,30.3268453 26.6367113,30.7622372 C25.916572,31.2151572 25.0763983,31.4396471 24.2264608,31.4062428 C22.8060411,31.4173446 21.4437989,30.8424053 20.4604447,29.816782 C19.9321243,29.2506388 19.5141208,28.5907538 19.2279303,27.8710625 C18.9010129,27.0381532 18.7427435,26.1485552 18.7623138,25.253933 C18.7329273,24.3286319 18.8865075,23.4066363 19.2142357,22.5408876 C19.4957395,21.8219679 19.9091165,21.1620542 20.4330555,20.5951681 C20.9229168,20.0739924 21.5213601,19.6670111 22.1859648,19.4030725 C22.8324995,19.1331383 23.525898,18.99345 24.2264608,18.9920051 C25.0789605,18.9576434 25.9224992,19.1769905 26.6504059,19.6223085 C27.2689837,20.0430448 27.8109181,20.5667437 28.2526746,21.1706626 L28.2526746,14.7580101 L30.9915954,14.7580101 L30.9915954,31.1047935 Z M17.8447753,25.2813374 C17.8484147,26.0843915 17.6948866,26.8803903 17.3928533,27.6244221 C17.102325,28.3442117 16.6743801,29.00045 16.1329497,29.5564391 C14.9857319,30.7224895 13.4132712,31.3706259 11.7780656,31.3514339 C10.954896,31.3566667 10.1393471,31.1934657 9.38150981,30.8718552 C8.66752799,30.5372291 8.02202164,30.0725768 7.47795979,29.5016302 C6.94099367,28.9500315 6.51757175,28.2982494 6.2317508,27.5833154 C5.92837688,26.8444745 5.77476154,26.0526811 5.77982886,25.253933 C5.77618944,24.4508789 5.92971755,23.6548801 6.2317508,22.9108483 C6.51725842,22.1916914 6.9406109,21.5353616 7.47795979,20.9788313 C8.02501179,20.405261 8.67551847,19.9403539 9.39520441,19.6086063 C10.1666754,19.2844638 10.996149,19.1212741 11.832844,19.1290276 C13.4518374,19.1173837 15.0070919,19.7595929 16.1466443,20.9103199 C16.6879661,21.4611547 17.1160183,22.1129019 17.4065479,22.8286348 C17.721715,23.6067533 17.8709777,24.4421579 17.8447753,25.2813374 L17.8447753,25.2813374 Z M48.9726109,24.4866069 C48.9670566,14.5749462 42.9932798,5.64311397 33.8380261,1.85777785 C24.6827721,-1.92755827 14.1499614,0.179451546 7.15311207,7.1958948 C0.156262698,14.212338 -1.92598978,24.7557184 1.8777179,33.9075873 C5.68142559,43.0594559 14.6216238,49.0165596 24.5277421,48.9999654 C38.043397,48.9999654 49,38.0372113 49,24.5140116 L48.9726109,24.4866069 Z" id="Shape"/></g></g></svg>